<svg xmlns="http://www.w3.org/2000/svg" id="Layer_1" width="1920" height="220" viewBox="0 0 1920 220"><style id="style2">.st0{fill:#616161;} .st1{fill:#F57C00;} .st2{fill:#FFFFFF;} .st3{fill:url(#SVGID_1_);} .st4{fill:url(#SVGID_2_);}</style><linearGradient id="SVGID_1_" x1="-.5" x2="1919.5" y1="110.5" y2="110.5" gradientUnits="userSpaceOnUse" gradientTransform="translate(.5 -.5)"><stop id="stop4" offset="0" stop-color="#EC6D23"/><stop id="stop6" offset="1" stop-color="#EC6E23"/></linearGradient><path id="rect9" fill="url(#SVGID_1_)" d="M0 0h1920v220H0z" class="st3"/><linearGradient id="SVGID_2_" x1="2294.55" x2="374.55" y1="6902.76" y2="6902.76" gradientUnits="userSpaceOnUse" gradientTransform="rotate(180 1147.276 3506.382)"><stop id="stop11" offset="0" stop-color="#EC6D23"/><stop id="stop13" offset=".76" stop-color="#E86324"/><stop id="stop15" offset="1" stop-color="#E65F24"/></linearGradient><path id="path18" fill="url(#SVGID_2_)" d="M1151.5 155.9l-47.7-14.7v33.3h47.7zm0 26.9h-47.7V216l47.7-14.7zm55.9-95.8l-47.5-14.7v33.2h47.5zm-47.6-87v9.3L1190 0zm47.6 45h-47.5v18.6l47.5 14.7zm0-41.6l-47.5 14.7v18.6h47.5zm-55.9 110.5h-47.7v18.5l47.7 14.7zm0-113.9h-30.2l30.2 9.3zm-56.1 113.9h-47.5v33.3l47.5-14.7zm0-27l-47.5-14.7v33.3h47.5zm56.1-14.6L1103.8 87v18.5h47.7zm-56.1 110.5h-47.5v18.5l47.5 14.7zm0-137.8h-47.5v18.5l47.5 14.7zm0 96.3l-47.5 14.7v18.5h47.5zm56.1-96.3h-47.7v33.3l47.7-14.7zm0-26.9l-47.7-14.7v33.3h47.7zM1319.2 45h-47.5v18.6l47.5 14.7zM1095.4 3.5l-47.5 14.7v18.5h47.5zm223.8-.1l-47.5 14.7v18.6h47.5zm0 83.6l-47.5-14.7v33.2h47.5zm-47.6-87v9.3l30.2-9.3zm47.6 141.2l-47.5 14.7v18.6h47.5zM1263.3 0h-30.2l30.2 9.3zM1375 18l-47.5-14.6v33.2h47.5zm-55.8 95.9h-47.5v33.2l47.5-14.7zm-111.8 27.3l-47.5 14.7v18.6h47.5zm55.9-96.2h-47.5v33.2l47.5-14.7zm0 110.9l-47.5-14.7v33.3h47.5zm0-137.8l-47.5-14.7v33.2h47.5zm-55.9 164.7h-47.5v18.5l47.5 14.7zm0-68.9h-47.5v33.2l47.5-14.7zm55.9 68.9h-47.5V216l47.5-14.7zm0-68.9h-47.5v18.6l47.5 14.7zm0-41.6L1215.8 87v18.5h47.5zm55.9 110.5h-47.5v18.5l47.5 14.7zm-447.2 0h-47.6v18.5L872 216zm0-68.9h-47.6v33.2l47.6-14.7zm0-26.9l-47.6-14.7v33.2H872zm0-42h-47.6v18.5L872 78.2zm0 96.2l-47.6 14.7v18.6H872zm55.9-68.9L880.4 87v18.5h47.5zm0-54.2L880.3 3.4v33.2h47.5V18.1zm0 26.9h-47.5v33.2l47.5-14.7zM816 0h-30.2L816 9.3zm0 72.3L768.5 87v18.5H816zm0 110.5h-47.5V216l47.5-14.6zm0-68.9h-47.5v18.6l47.5 14.6zm0-68.9h-47.5v33.2L816 63.6zm0-27L768.5 3.4v33.2H816zm56-14.6l-47.6 14.7v18.6H872zM824.4 0v9.3L854.6 0zm103.5 113.9h-47.5v18.6l47.5 14.7zM983.8 45h-47.5v18.6l47.5 14.7zm55.7 68.9h-47.4v18.6l47.4 14.6zm0-68.9h-47.4v33.2l47.4-14.6zm0 27.4L992.1 87v18.5h47.4zm-55.7 68.8l-47.5 14.7v18.6h47.5zM1039.5 18L992.1 3.4v33.2h47.4zm0-18h-30l30 9.3zm0 155.8l-47.4-14.6v33.3h47.4zm0 27h-47.4V216l47.4-14.6zm-111.6-26.9l-47.5-14.7v33.3h47.5zM936.2 0v9.3L966.4 0zm-8.3 0h-30.2l30.2 9.3zm0 182.8h-47.5V216l47.5-14.7zM983.8 3.4l-47.5 14.7v18.6h47.5zm0 83.6l-47.5-14.7v33.2h47.5zm64.1-87v9.4l30.4-9.4zm-64.1 182.8h-47.5v18.5l47.5 14.7zm-167.8-27l-47.5-14.6v33.3H816zm894.5.1l-47.7-14.7v33.3h47.7zm0-155.9h-30.2l30.2 9.3zm0 182.8h-47.7V216l47.7-14.7zm55.9-68.9h-47.5v33.2l47.5-14.7zm0-26.9l-47.5-14.7v33.2h47.5zm-55.9 26.9h-47.7v18.5l47.7 14.7zm55.9-110.5l-47.5 14.7v18.6h47.5zm0 41.6h-47.5v18.6l47.5 14.7zm-47.6-45v9.3L1749 0zm-64.4 113.9h-47.5v33.3l47.5-14.7zm0 68.9h-47.5v18.5l47.5 14.7zm0-95.9l-47.5-14.7v33.3h47.5zm56.1-14.6L1662.8 87v18.5h47.7zM1654.4 45h-47.5v18.5l47.5 14.7zm0 96.3l-47.5 14.7v18.5h47.5zm56.1-96.3h-47.7v33.3l47.7-14.7zm0-26.9l-47.7-14.7v33.3h47.7zm167.7-14.7l-47.5 14.7v18.6h47.5zm-223.8.1l-47.5 14.7v18.5h47.5zm112 179.3h-47.5v18.5l47.5 14.7zM1830.6 0v9.3l30.2-9.3zm47.6 87l-47.5-14.7v33.2h47.5zm0 26.9h-47.5v33.2l47.5-14.7zm0 27.3l-47.5 14.7v18.6h47.5zM1822.3 0h-30.2l30.2 9.3zm55.9 182.8h-47.5v18.5l47.5 14.7zm0-137.8h-47.5v18.6l47.5 14.7zm-55.9 0h-47.5v33.2l47.5-14.7zm0-26.9l-47.5-14.7v33.2h47.5zm0 137.8l-47.5-14.7v33.3h47.5zm-55.9-14.7l-47.5 14.7v18.6h47.5zm55.9 41.6h-47.5V216l47.5-14.7zm0-110.5L1774.8 87v18.5h47.5zm0 41.6h-47.5v18.6l47.5 14.7zm-447.3 0h-47.5v18.6l47.5 14.6zm56 27.3l-47.6 14.7v18.6h47.6zm55.9-123.1l-47.5-14.7v33.2h47.5zM1431 182.8h-47.6v18.5L1431 216zm0-68.9h-47.6v33.2l47.6-14.7zm0-26.9l-47.6-14.7v33.2h47.6zm55.9-42h-47.5v33.2l47.5-14.7zm0 68.9h-47.5v18.6l47.5 14.7zm0-41.6L1439.4 87v18.5h47.5zm0 110.5h-47.5V216l47.5-14.7zm-111.9 0h-47.5V216l47.5-14.6zm0-137.8h-47.5v33.2l47.5-14.6zm0 27.3L1327.5 87v18.5h47.5zm0 83.5l-47.5-14.6v33.3h47.5zM1375 0h-30.2l30.2 9.3zm56 3.4l-47.6 14.7v18.6h47.6zM1383.4 0v9.3l30.2-9.3zm47.6 45h-47.6v18.5l47.6 14.7zm111.8 96.2l-47.5 14.7v18.6h47.5zm64-141.2v9.4l30.4-9.4zm-8.3 72.4L1551.1 87v18.5h47.4zm0-54.4l-47.4-14.6v33.2h47.4zm0 95.9h-47.4v18.6l47.4 14.6zm0-68.9h-47.4v33.2l47.4-14.6zm0 137.8h-47.4V216l47.4-14.6zm0-182.8h-30l30 9.3zm0 155.8l-47.4-14.6v33.3h47.4zM1486.9 0h-30.2l30.2 9.3zm55.9 182.8h-47.5v18.5l47.5 14.7zm0-179.4l-47.5 14.7v18.6h47.5zm-55.9 152.5l-47.5-14.7v33.3h47.5zM1495.2 0v9.3l30.2-9.3zm47.6 45h-47.5v18.6l47.5 14.7zm0 68.9h-47.5v33.2l47.5-14.7zm0-26.9l-47.5-14.7v33.2h47.5zm-559 26.9h-47.5v33.2l47.5-14.7zm-950.3 42L0 145.5v29h33.5zm0-83.6L0 82.6v22.9h33.5zm0-27.3H0v28.9l33.5-10.3zm0 68.9H0v22.9l33.5 10.3zm0-95.9L0 7.7v28.9h33.5zM89.2 3.5L41.8 18.1v18.6h47.4zm288 206.6v9.9h32.1zM33.5 0H3.3l30.2 9.3zm8.3 0v9.3L72 0zm111.7 210v10h32.3zm103.6 10v-9.9L225 220zm8.3-9.9v9.9h32.1zm103.5 9.9v-9.9l-32.1 9.9zm-335.4 0v-9.9L1.4 220zm111.6 0v-9.8l-31.9 9.8zM33.5 201.4v-18.5H0v28.9zm8.3 8.7v9.9h32.1zM89.2 45H41.8v18.6l47.4 14.6zm112-41.6l-47.7 14.7v18.5h47.7zM153.5 0v9.4L183.9 0zm47.7 45h-47.7v18.5l47.7 14.7zM145.1 0h-30l30 9.3zm615.1 141.2l-47.5 14.7v18.6h47.5zm-615.1 14.6l-47.5-14.7v33.4h47.5zM201.2 87l-47.7-14.8v33.3h47.7zm0 26.9h-47.7v33.3l47.7-14.7zm-56.1 68.9H97.6V216l47.5-14.7zm0-164.8L97.6 3.3v33.3h47.5zM89.2 182.8H41.8v18.5l47.4 14.6zm0-41.5l-47.4 14.6v18.6h47.4zm0-27.4H41.8v33.2l47.4-14.6zm55.9 0H97.6v18.5l47.5 14.7zm0-68.9H97.6v33.3l47.5-14.7zM89.2 86.9L41.8 72.3v33.2h47.4zm55.9-14.5L97.6 87v18.5h47.5zM1606.8 210v10h32.3zM201.2 141.2l-47.7 14.7v18.6h47.7zM1710.5 220v-9.9l-32.1 9.9zm8.3-9.9v9.9h32.1zm103.5 9.9v-9.9l-32.1 9.9zm-327.1-9.9v9.9h32.1zm-8.3 9.9v-9.9l-32.1 9.9zm343.7-9.9v9.9h32.1zm-232.1 9.9v-9.8l-31.9 9.8zM1920 13.7l-33.5-10.3v33.2h33.5zm0 206.3v-5.6l-18 5.6zm0-175h-33.5v33.2l33.5-10.3zm0-45h-16.1l16.1 5zm0 76.6L1886.5 87v18.5h33.5zm-536.6 133.5v9.9h32.1zm536.6-27.3h-33.5V216l33.5-10.3zm0-31.3l-33.5-10.3v33.3h33.5zm0-37.6h-33.5v18.6l33.5 10.3zM816 220v-9.9l-32.1 9.9zm-111.7 0v-9.9l-32.1 9.9zm8.3-9.9v9.9h32.1zm215.3 9.9v-9.9l-32.1 9.9zm447.1 0v-9.9l-32.1 9.9zm-894.3 0v-9.9l-32.1 9.9zm8.3-9.9v9.9h32.1zm111.8 0v9.9h32.1zm-8.3 9.9v-9.9l-32.1 9.9zm231.9-9.9v9.9h32.1zm438.9 9.9v-9.9l-32.1 9.9zm-327.1-9.9v9.9h32.1zm223.6 0v9.9h32.1zm111.8 0v9.9h32.1zm-232.1 9.9v-9.8l-31.9 9.8zm8.4-10v10h32.3zm103.6 10v-9.9l-32.1 9.9zm-950.3-37.2h-47.7v18.5l47.7 14.7zm391.3 0H545V216l47.5-14.7zm0-182.8h-30.2l30.2 9.3zm0 155.9L545 141.2v33.3h47.5zm0-42H545v18.6l47.5 14.7zM600.8 0v9.3L631 0zm47.6 45h-47.5v18.6l47.5 14.7zm0-41.6l-47.5 14.7v18.6h47.5zm-55.9 68.9L545 87v18.5h47.5zm-55.9 41.6h-47.5v33.2l47.5-14.7zM592.5 45H545v33.2l47.5-14.6zm55.9 42l-47.5-14.7v33.2h47.5zM536.6 45h-47.5v18.6l47.5 14.7zm0-41.6l-47.5 14.7v18.6h47.5zm0 83.6l-47.5-14.7v33.2h47.5zm55.9-69L544.9 3.4v33.2h47.6zm-55.9 164.8h-47.5v18.5l47.5 14.7zM489 0v9.3L519.2 0zm47.6 141.2l-47.5 14.7v18.6h47.5zM760.2 3.4l-47.5 14.7v18.6h47.5zm0 41.6h-47.5v18.6l47.5 14.7zM712.6 0v9.3L742.8 0zm-8.3 0h-30.2l30.2 9.3zm55.9 182.8h-47.5v18.5l47.5 14.7zm-55.9-26.9l-47.5-14.7v33.3h47.5zm55.9-42h-47.5v33.2l47.5-14.7zm-111.8 0h-47.5v33.2l47.5-14.7zM760.2 87l-47.5-14.7v33.2h47.5zm-55.9-68.9L656.7 3.4v33.2h47.5V18.1zm-55.9 123.1l-47.5 14.7v18.6h47.5zm0 41.6h-47.5v18.5l47.5 14.7zm55.9 0h-47.5V216l47.5-14.7zm0-137.8h-47.5v33.2l47.5-14.7zm0 68.9h-47.5v18.6l47.5 14.7zm0-41.6L656.8 87v18.5h47.5zM480.7 0h-30.2l30.2 9.3zM313 182.8h-47.5v18.5L313 216zm0-68.9h-47.5v33.2l47.5-14.7zm0-26.9l-47.5-14.7v33.2H313zm0 54.2l-47.5 14.7v18.6H313zM368.9 18L321.3 3.4v33.2h47.5V18zm0 54.3L321.4 87v18.5h47.5zM313 45h-47.5v18.6L313 78.3zm55.9 0h-47.5v33.2l47.5-14.7zm-111.8 68.9h-47.6v18.6l47.5 14.7v-33.3zm111.8 0h-47.5v18.6l47.5 14.7zM257.1 72.3L209.5 87v18.5H257V72.3zm0-27.3h-47.6v33.2L257 63.5V45zm0 137.8h-47.6V216l47.5-14.7v-18.5zM265.4 0v9.3L295.6 0zM313 3.4l-47.5 14.7v18.6H313zm-55.9 152.5l-47.6-14.7v33.3H257v-18.6zm0-155.9h-30.2l30.2 9.3zm167.6 182.8h-47.5v18.5l47.5 14.6zm56-137.8h-47.6v33.2l47.6-14.7zm0-27L433.1 3.4v33.2h47.6zm0 54.3L433.1 87v18.5h47.6zm-56 68.9l-47.5 14.6v18.7h47.5zm56 14.7l-47.6-14.7v33.3h47.6zM257.1 18L209.5 3.4v33.2H257V18zm223.6 95.9h-47.6v18.6l47.6 14.7zm0 68.9h-47.6V216l47.6-14.7zM424.7 45h-47.5v18.6l47.5 14.6zM368.9 0h-30.2l30.2 9.3zm8.3 0v9.3L407.4 0zm-8.3 155.9l-47.5-14.7v33.3h47.5zm0 26.9h-47.5V216l47.5-14.7zm55.8-95.9l-47.5-14.6v33.2h47.5zm0-83.5L377.2 18v18.6h47.5zm0 110.5h-47.5v33.2l47.5-14.6z" class="st4"/></svg>