<svg xmlns="http://www.w3.org/2000/svg" width="42" height="42" viewBox="0 0 42 42"><defs><clipPath id="a"><path d="M0 552h530.97V0H0z"/></clipPath></defs><g clip-path="url(#a)" transform="matrix(1.28917 0 0 -1.28917 -175.74 218.32)"><path fill="#ffffff" fill-rule="evenodd" d="M152.6 168.55c-9 0-16.28-7.3-16.28-16.3 0-7.2 4.67-13.3 11.14-15.45.82-.15 1.1.35 1.1.78v2.77c-4.54-.98-5.5 2.2-5.5 2.2-.74 1.87-1.8 2.37-1.8 2.37-1.48 1 .1 1 .1 1 1.64-.12 2.5-1.7 2.5-1.7 1.45-2.48 3.8-1.76 4.74-1.34.15 1.05.57 1.77 1.04 2.18-3.62.4-7.42 1.8-7.42 8.05 0 1.8.63 3.24 1.67 4.38-.17.4-.73 2.07.15 4.3 0 0 1.37.45 4.48-1.66 1.3.36 2.7.54 4.08.55 1.4 0 2.8-.2 4.1-.55 3.1 2.1 4.46 1.67 4.46 1.67.9-2.25.33-3.9.17-4.32 1.04-1.14 1.67-2.6 1.67-4.37 0-6.25-3.8-7.63-7.44-8.03.6-.5 1.1-1.5 1.1-3.02v-4.47c0-.43.28-.94 1.1-.78 6.48 2.16 11.14 8.26 11.14 15.46 0 9-7.3 16.3-16.3 16.3"/></g></svg>