<svg xmlns="http://www.w3.org/2000/svg" width="42" height="42"><path fill="#fff" d="M42 7.974c-1.545.686-3.206 1.15-4.95 1.357 1.78-1.065 3.146-2.754 3.79-4.766-1.665.987-3.51 1.704-5.472 2.09-1.572-1.674-3.81-2.72-6.29-2.72-4.76 0-8.617 3.858-8.617 8.616 0 .676.078 1.333.224 1.964-7.16-.36-13.51-3.79-17.76-9.003-.742 1.274-1.167 2.754-1.167 4.333 0 2.99 1.52 5.627 3.834 7.172-1.412-.045-2.74-.432-3.902-1.078v.11c0 4.174 2.97 7.656 6.91 8.448-.722.197-1.483.302-2.27.302-.554 0-1.094-.054-1.62-.154 1.096 3.423 4.278 5.914 8.05 5.984-2.95 2.31-6.665 3.688-10.702 3.688-.696 0-1.382-.04-2.056-.12 3.813 2.445 8.343 3.87 13.21 3.87 15.848 0 24.515-13.13 24.515-24.515 0-.374-.008-.746-.025-1.115 1.684-1.215 3.145-2.733 4.3-4.46"/></svg>