<svg xmlns="http://www.w3.org/2000/svg" id="Layer_1" width="642" height="150" viewBox="0 0 642 150"><style>.st0{fill:#616161;} .st1{fill:#F57C00;} .st2{fill:#FFFFFF;}</style><path d="M51.1 113l-7.9-2.4-.4-95.6-18.2 8.7-1 81.3-6.5-2-.5-75.5L1 35v80l71.7 34.5V.5l-20.8 10z" class="st2"/><path d="M81.7 3.3v66.8l92.5 1.6V31.8L81.7 3.3zm20.7 33l56.7 10.9v6.4l-56.7-7V36.3zM81.7 79.9v66.9l92.5-28.6V78.3l-92.5 1.6zm20.7 23l56.7-6.6v6.4l-56.7 10.5v-10.3z" class="st1"/><g><path d="M362.1 58.9c-2.7-2.6-7.1-3.9-13.3-3.9H333c-6.2 0-10.6 1.3-13.2 3.9-2.7 2.6-4 6.3-4 11.2v30.5c0 4.9 1.3 8.6 4 11.2 2.7 2.6 7.1 3.9 13.2 3.9h15.9c6.2 0 10.6-1.3 13.3-3.9 2.7-2.6 4-6.3 4-11.2V70.1c-.1-4.9-1.4-8.6-4.1-11.2zm-16.3 39.7c0 1.8-1 2.7-3 2.7H339c-2 0-3-.9-3-2.7V72c0-1.8 1-2.7 3-2.7h3.7c2 0 3 .9 3 2.7v26.6zM408.7 54.4h1.8v18h-6.9c-5.1 0-7.7 2.8-7.7 8.3v35h-20.7V55h20.3v9.4c.7-3.1 2.1-5.5 4.4-7.3 2.3-1.8 5.3-2.7 8.8-2.7zM437.4 115.7h-20.7V34.3h20.7v48.3L448.8 55h21.4l-13 29.9 13 30.8h-21.5l-11.3-28.3v28.3zM506.5 55h3.3c10.8 0 16.2 5 16.2 15.1v30.5c0 10-5.4 15.1-16.2 15.1h-3.3c-6.2 0-9.9-2.6-11.1-7.8v7.8h-20.3V34.3h20.7v27.2c1.6-4.3 5.1-6.5 10.7-6.5zm-1.2 42.8V72.9c0-1.8-1-2.7-3-2.7h-3.1c-2.2 0-3.3 1.2-3.3 3.7v23c0 2.4 1.1 3.7 3.3 3.7h3.1c2-.1 3-1 3-2.8zM551.8 55h15.8c6.2 0 10.6 1.3 13.3 3.9 2.7 2.6 4 6.3 4 11.2v30.5c0 4.9-1.3 8.6-4 11.2-2.7 2.6-7.1 3.9-13.3 3.9h-15.8c-6.2 0-10.6-1.3-13.2-3.9-2.7-2.6-4-6.3-4-11.2V70.1c0-4.9 1.3-8.6 4-11.2 2.7-2.6 7.1-3.9 13.2-3.9zm12.8 43.6V72c0-1.8-1-2.7-3-2.7H558c-2 0-3 .9-3 2.7v26.6c0 1.8 1 2.7 3 2.7h3.6c2 0 3-.9 3-2.7zM625.9 84.3l15.1 31.4h-20.9l-6.6-18-6 18h-20.2l13.9-31L586.7 55h21.6l5.2 16.9 5.2-16.9h20.5l-13.3 29.3zM306 100.6v-63h-20.7v60.2c0 1.8-1 2.7-3 2.7H278c-2 0-3-.9-3-2.7V37.6h-20.1v60.2c0 1.8-1 2.7-3 2.7h-4.3c-2 0-3-.9-3-2.7V37.6h-20.7v63c0 4.9 1.3 8.6 4 11.2 2.7 2.6 7.1 3.9 13.3 3.9h12.6c4.2 0 8.3-1.4 11.2-4.6 2.9 3.2 7 4.6 11.2 4.6h12.6c6.2 0 10.6-1.3 13.3-3.9 2.6-2.6 3.9-6.3 3.9-11.2z" class="st2"/></g></svg>
