<?xml version="1.0" encoding="UTF-8" standalone="no"?>
<svg
   xmlns:dc="http://purl.org/dc/elements/1.1/"
   xmlns:cc="http://creativecommons.org/ns#"
   xmlns:rdf="http://www.w3.org/1999/02/22-rdf-syntax-ns#"
   xmlns:svg="http://www.w3.org/2000/svg"
   xmlns="http://www.w3.org/2000/svg"
   id="svg2"
   version="1.1"
   viewBox="0 0 201.81313 22.40625"
   height="22.40625"
   width="201.81313">
  <metadata
     id="metadata17">
    <rdf:RDF>
      <cc:Work
         rdf:about="">
        <dc:format>image/svg+xml</dc:format>
        <dc:type
           rdf:resource="http://purl.org/dc/dcmitype/StillImage" />
        <dc:title>Group 3</dc:title>
      </cc:Work>
    </rdf:RDF>
  </metadata>
  <!-- Generator: Sketch 40.3 (33839) - http://www.bohemiancoding.com/sketch -->
  <title
     id="title4">Group 3</title>
  <desc
     id="desc6">Created with Sketch.</desc>
  <defs
     id="defs8" />
  <g
     transform="translate(-0.97265625,-0.3515625)"
     style="fill:none;fill-rule:evenodd;stroke:none;stroke-width:1"
     id="Page-1">
    <g
       style="fill:#000000"
       transform="translate(-64,-1895)"
       id="Desktop-HD">
      <g
         transform="translate(64,1895)"
         id="Group-3">
        <path
           style="opacity:0.87000002"
           id="Google"
           d="m 15.890625,11.003906 0,-1.6054685 -6.8789062,0 0,1.8515625 4.7695312,0 0,0.304688 c 0,1.414069 -0.468745,2.564448 -1.40625,3.451171 -0.937505,0.886724 -2.156242,1.330078 -3.65625,1.330078 -1.7187586,0 -3.07812,-0.617181 -4.078125,-1.851562 -1.000005,-1.234381 -1.5,-2.914052 -1.5,-5.0390625 0,-2.0937605 0.4941357,-3.732416 1.4824219,-4.9160156 C 5.6113331,3.3456972 6.9765538,2.7539063 8.71875,2.7539063 c 1.1875059,0 2.205074,0.3124968 3.052734,0.9375 0.847661,0.6250031 1.447264,1.5078067 1.798829,2.6484374 l 2.214843,0 C 15.472655,4.6601479 14.673835,3.3183644 13.388672,2.3144531 12.103509,1.3105419 10.546884,0.80859375 8.71875,0.80859375 6.3515507,0.80859375 4.468757,1.5898359 3.0703125,3.1523438 1.671868,4.7148516 0.97265625,6.816393 0.97265625,9.4570313 c 0,2.6875137 0.70116485,4.8300697 2.10351565,6.4277347 1.4023507,1.597664 3.2831913,2.396484 5.6425781,2.396484 2.257824,0 4.017572,-0.642572 5.279297,-1.927734 1.261725,-1.285163 1.892578,-3.068348 1.892578,-5.34961 l 0,0 z m 8.032187,7.113281 c 1.773447,0 3.187495,-0.583978 4.242188,-1.751953 1.054693,-1.167974 1.582031,-2.728505 1.582031,-4.68164 0,-1.9609476 -0.527338,-3.5234319 -1.582031,-4.6875003 C 27.110307,5.8320254 25.696259,5.25 23.922812,5.25 c -1.773446,0 -3.187494,0.5820254 -4.242187,1.7460937 -1.054693,1.1640684 -1.582031,2.7265527 -1.582031,4.6875003 0,1.953135 0.527338,3.513666 1.582031,4.68164 1.054693,1.167975 2.468741,1.751953 4.242187,1.751953 l 0,0 z m 0,-1.816406 c -1.17188,0 -2.08984,-0.408199 -2.753906,-1.224609 -0.664066,-0.81641 -0.996094,-1.947259 -0.996094,-3.392578 0,-1.44532 0.330075,-2.576168 0.990235,-3.3925784 0.660159,-0.8164103 1.580072,-1.2246094 2.759765,-1.2246094 1.179694,0 2.099607,0.406246 2.759766,1.2187501 0.66016,0.812504 0.990234,1.9453057 0.990234,3.3984377 0,1.445319 -0.330074,2.576168 -0.990234,3.392578 -0.660159,0.81641 -1.580072,1.224609 -2.759766,1.224609 l 0,0 z m 13.563438,1.816406 c 1.773446,0 3.187495,-0.583978 4.242187,-1.751953 1.054693,-1.167974 1.582032,-2.728505 1.582032,-4.68164 0,-1.9609476 -0.527339,-3.5234319 -1.582032,-4.6875003 C 40.673745,5.8320254 39.259696,5.25 37.48625,5.25 c -1.773446,0 -3.187495,0.5820254 -4.242188,1.7460937 -1.054692,1.1640684 -1.582031,2.7265527 -1.582031,4.6875003 0,1.953135 0.527339,3.513666 1.582031,4.68164 1.054693,1.167975 2.468742,1.751953 4.242188,1.751953 l 0,0 z m 0,-1.816406 c -1.171881,0 -2.08984,-0.408199 -2.753906,-1.224609 -0.664066,-0.81641 -0.996094,-1.947259 -0.996094,-3.392578 0,-1.44532 0.330075,-2.576168 0.990234,-3.3925784 0.66016,-0.8164103 1.580073,-1.2246094 2.759766,-1.2246094 1.179693,0 2.099606,0.406246 2.759766,1.2187501 0.660159,0.812504 0.990234,1.9453057 0.990234,3.3984377 0,1.445319 -0.330075,2.576168 -0.990234,3.392578 -0.66016,0.81641 -1.580073,1.224609 -2.759766,1.224609 l 0,0 z m 13.469687,-0.117187 c -1.101568,0 -1.984371,-0.414059 -2.648437,-1.242188 -0.664066,-0.828129 -0.996094,-1.92968 -0.996094,-3.304687 0,-1.38282 0.332028,-2.4902305 0.996094,-3.3222659 0.664066,-0.8320354 1.546869,-1.2480469 2.648437,-1.2480469 1.109381,0 2.005856,0.4218708 2.689454,1.2656251 0.683597,0.8437542 1.02539,1.9453057 1.02539,3.3046877 0,1.351569 -0.341793,2.447261 -1.02539,3.287109 -0.683598,0.839848 -1.580073,1.259766 -2.689454,1.259766 l 0,0 z m 0.07031,6.574218 c 1.734384,0 3.115229,-0.458979 4.142578,-1.376953 1.027349,-0.917973 1.541016,-2.130852 1.541016,-3.638672 l 0,-12.3749995 -1.945313,0 0,2.0507812 -0.03516,0 C 54.307498,6.7226528 53.739144,6.1875019 53.024297,5.8125 52.30945,5.4374981 51.506723,5.25 50.616094,5.25 c -1.625008,0 -2.929683,0.5820254 -3.914063,1.7460937 -0.98438,1.1640684 -1.476562,2.7109279 -1.476562,4.6406253 0,1.906259 0.490229,3.443353 1.470703,4.611328 C 47.676645,17.416021 48.967648,18 50.569219,18 c 0.882817,0 1.679684,-0.189451 2.390625,-0.568359 0.710941,-0.378909 1.265623,-0.912106 1.664062,-1.59961 l 0.04687,0 0,1.980469 c 0,0.95313 -0.316403,1.722653 -0.949219,2.308594 C 53.088747,20.707034 52.221568,21 51.12,21 50.323121,21 49.627815,20.822267 49.034062,20.466797 48.44031,20.111326 48.041876,19.640628 47.83875,19.054687 l -2.109375,0 c 0.179688,1.070318 0.76562,1.955075 1.757812,2.654297 0.992193,0.699223 2.171869,1.048828 3.539063,1.048828 l 0,0 z M 59.984219,18 l 2.039062,0 0,-17.6484375 -2.039062,0 0,1.2773437 0,3.2871094 0,4.2597657 0,4.2597657 0,3.287109 0,1.277344 0,0 z m 10.3525,-10.9570313 c 1.000005,0 1.810544,0.3281218 2.43164,0.9843751 0.621097,0.6562532 0.94336,1.5195259 0.966797,2.5898442 l -6.949218,0 c 0.07031,-1.0703183 0.431637,-1.933591 1.083984,-2.5898442 0.652347,-0.6562533 1.474604,-0.9843751 2.466797,-0.9843751 l 0,0 z m 3.351562,7.3476563 c -0.179688,0.593753 -0.556638,1.064451 -1.130859,1.412109 -0.574222,0.347658 -1.255855,0.521485 -2.044922,0.521485 -1.125006,0 -2.02734,-0.359372 -2.707031,-1.078125 -0.679691,-0.718754 -1.019531,-1.679682 -1.019531,-2.882813 l 0,-0.117187 9.070312,0 0,-0.796875 c 0,-1.9140723 -0.492182,-3.425776 -1.476562,-4.5351565 C 73.395308,5.8046819 72.059383,5.25 70.371875,5.25 c -1.718759,0 -3.097651,0.5898379 -4.136719,1.7695312 -1.039067,1.1796935 -1.558593,2.7499902 -1.558593,4.7109378 0,1.953135 0.521479,3.505853 1.564453,4.658203 1.042974,1.152349 2.451163,1.728515 4.224609,1.728515 1.351569,0 2.519526,-0.349605 3.503906,-1.048828 0.98438,-0.699222 1.562499,-1.591791 1.734375,-2.677734 l -0.304687,0 -0.703125,0 -0.703125,0 -0.304688,0 0,0 z" />
        <path
           style="opacity:0.23999999"
           id="Developers"
           d="m 84.628906,1.0898437 0,16.9101563 5.800781,0 c 2.515638,0 4.474603,-0.744133 5.876954,-2.232422 1.40235,-1.488289 2.103515,-3.56444 2.103515,-6.2285155 0,-2.6640758 -0.703118,-4.7382738 -2.109375,-6.2226562 C 94.894524,1.8320238 92.937512,1.0898437 90.429687,1.0898437 l -0.878906,0 -2.021484,0 -2.021485,0 -0.878906,0 0,0 z m 2.109375,1.8984376 3.550781,0 c 1.921885,0 3.39648,0.5664005 4.423829,1.6992187 1.027349,1.1328182 1.541015,2.7578019 1.541015,4.875 0,2.093761 -0.51562,3.707026 -1.546875,4.839844 -1.031255,1.132818 -2.503896,1.699218 -4.417969,1.699218 l -3.550781,0 0,-0.949218 0,-2.44336 0,-3.1640621 0,-3.1640625 0,-2.4433594 0,-0.9492187 0,0 z m 19.457969,4.0546874 c 1,0 1.81054,0.3281218 2.43164,0.9843751 0.6211,0.6562532 0.94336,1.5195259 0.9668,2.5898442 l -6.94922,0 c 0.0703,-1.0703183 0.43164,-1.933591 1.08398,-2.5898442 0.65235,-0.6562533 1.47461,-0.9843751 2.4668,-0.9843751 l 0,0 z m 3.35156,7.3476563 c -0.17969,0.593753 -0.55664,1.064451 -1.13086,1.412109 -0.57422,0.347658 -1.25585,0.521485 -2.04492,0.521485 -1.125,0 -2.02734,-0.359372 -2.70703,-1.078125 -0.67969,-0.718754 -1.01953,-1.679682 -1.01953,-2.882813 l 0,-0.117187 9.07031,0 0,-0.796875 c 0,-1.9140723 -0.49218,-3.425776 -1.47656,-4.5351565 C 109.25484,5.8046819 107.91891,5.25 106.23141,5.25 c -1.71876,0 -3.09766,0.5898379 -4.13672,1.7695312 -1.03907,1.1796935 -1.5586,2.7499902 -1.5586,4.7109378 0,1.953135 0.52148,3.505853 1.56446,4.658203 1.04297,1.152349 2.45116,1.728515 4.22461,1.728515 1.35157,0 2.51952,-0.349605 3.5039,-1.048828 0.98438,-0.699222 1.5625,-1.591791 1.73438,-2.677734 l -0.30469,0 -0.70312,0 -0.70313,0 -0.30469,0 0,0 z m 15.00485,-9.0234375 -2.1211,0 -3.55078,10.4296875 -0.0469,0 -3.53907,-10.4296875 -2.13281,0 L 117.82609,18 l 2.0625,0 c 0,0 0.15625,-0.425777 0.46875,-1.277344 0.3125,-0.851566 0.70117,-1.90429 1.16602,-3.158203 0.46484,-1.253912 0.92969,-2.507806 1.39453,-3.7617186 0.46485,-1.2539125 0.85352,-2.3066364 1.16602,-3.1582032 0.3125,-0.8515667 0.46875,-1.2773437 0.46875,-1.2773437 l 0,0 z m 6.75484,1.6757812 c 1,0 1.81054,0.3281218 2.43164,0.9843751 0.6211,0.6562532 0.94336,1.5195259 0.9668,2.5898442 l -6.94922,0 c 0.0703,-1.0703183 0.43164,-1.933591 1.08398,-2.5898442 0.65235,-0.6562533 1.47461,-0.9843751 2.4668,-0.9843751 l 0,0 z m 3.35156,7.3476563 c -0.17969,0.593753 -0.55664,1.064451 -1.13086,1.412109 -0.57422,0.347658 -1.25585,0.521485 -2.04492,0.521485 -1.125,0 -2.02734,-0.359372 -2.70703,-1.078125 -0.67969,-0.718754 -1.01953,-1.679682 -1.01953,-2.882813 l 0,-0.117187 9.07031,0 0,-0.796875 c 0,-1.9140723 -0.49218,-3.425776 -1.47656,-4.5351565 C 134.36609,5.8046819 133.03016,5.25 131.34266,5.25 c -1.71876,0 -3.09766,0.5898379 -4.13672,1.7695312 -1.03907,1.1796935 -1.5586,2.7499902 -1.5586,4.7109378 0,1.953135 0.52148,3.505853 1.56446,4.658203 1.04297,1.152349 2.45116,1.728515 4.22461,1.728515 1.35157,0 2.51952,-0.349605 3.5039,-1.048828 0.98438,-0.699222 1.5625,-1.591791 1.73438,-2.677734 l -0.30469,0 -0.70313,0 -0.70312,0 -0.30469,0 0,0 z M 139.48031,18 l 2.03906,0 0,-17.6484375 -2.03906,0 0,1.2773437 0,3.2871094 0,4.2597657 0,4.2597657 0,3.287109 0,1.277344 0,0 z m 10.51656,0.117187 c 1.77345,0 3.1875,-0.583978 4.24219,-1.751953 1.05469,-1.167974 1.58203,-2.728505 1.58203,-4.68164 0,-1.9609476 -0.52734,-3.5234319 -1.58203,-4.6875003 C 153.18437,5.8320254 151.77032,5.25 149.99687,5.25 c -1.77344,0 -3.18749,0.5820254 -4.24218,1.7460937 -1.0547,1.1640684 -1.58203,2.7265527 -1.58203,4.6875003 0,1.953135 0.52733,3.513666 1.58203,4.68164 1.05469,1.167975 2.46874,1.751953 4.24218,1.751953 l 0,0 z m 0,-1.816406 c -1.17188,0 -2.08984,-0.408199 -2.7539,-1.224609 -0.66407,-0.81641 -0.9961,-1.947259 -0.9961,-3.392578 0,-1.44532 0.33008,-2.576168 0.99024,-3.3925784 0.66016,-0.8164103 1.58007,-1.2246094 2.75976,-1.2246094 1.1797,0 2.09961,0.406246 2.75977,1.2187501 0.66016,0.812504 0.99023,1.9453057 0.99023,3.3984377 0,1.445319 -0.33007,2.576168 -0.99023,3.392578 -0.66016,0.81641 -1.58007,1.224609 -2.75977,1.224609 l 0,0 z M 164.4275,5.25 c -0.875,0 -1.68359,0.1972636 -2.42578,0.5917969 -0.74219,0.3945332 -1.29687,0.9199186 -1.66406,1.5761718 l -0.0469,0 0,-2.0507812 -1.93359,0 0,16.8515625 2.03906,0 0,-6.269531 0.0469,0 c 0.39844,0.687503 0.94531,1.220701 1.64063,1.599609 0.69532,0.378908 1.49218,0.568359 2.39062,0.568359 1.59376,0 2.88672,-0.589837 3.87891,-1.769531 0.99219,-1.179693 1.48828,-2.734365 1.48828,-4.664062 0,-1.9296974 -0.49999,-3.4843693 -1.5,-4.6640628 C 167.34156,5.8398379 166.03688,5.25 164.4275,5.25 l 0,0 z m -0.375,11.050781 c -1.08594,0 -1.96875,-0.425777 -2.64844,-1.277343 -0.67969,-0.851567 -1.01953,-1.964837 -1.01953,-3.339844 0,-1.375007 0.33984,-2.4882772 1.01953,-3.339844 0.67969,-0.8515668 1.5625,-1.2773438 2.64844,-1.2773438 1.11719,0 2.01367,0.4199177 2.68945,1.2597657 0.67579,0.8398479 1.01367,1.9589771 1.01367,3.3574221 0,1.398444 -0.33788,2.517574 -1.01367,3.357422 -0.67578,0.839848 -1.57226,1.259765 -2.68945,1.259765 l 0,0 z m 13.36422,-9.2578123 c 1,0 1.81054,0.3281218 2.43164,0.9843751 0.6211,0.6562532 0.94336,1.5195259 0.9668,2.5898442 l -6.94922,0 c 0.0703,-1.0703183 0.43163,-1.933591 1.08398,-2.5898442 0.65235,-0.6562533 1.47461,-0.9843751 2.4668,-0.9843751 l 0,0 z m 3.35156,7.3476563 c -0.17969,0.593753 -0.55664,1.064451 -1.13086,1.412109 -0.57422,0.347658 -1.25585,0.521485 -2.04492,0.521485 -1.12501,0 -2.02734,-0.359372 -2.70703,-1.078125 -0.67969,-0.718754 -1.01953,-1.679682 -1.01953,-2.882813 l 0,-0.117187 9.07031,0 0,-0.796875 c 0,-1.9140723 -0.49218,-3.425776 -1.47656,-4.5351565 C 180.47531,5.8046819 179.13938,5.25 177.45187,5.25 c -1.71875,0 -3.09765,0.5898379 -4.13671,1.7695312 -1.03907,1.1796935 -1.5586,2.7499902 -1.5586,4.7109378 0,1.953135 0.52148,3.505853 1.56446,4.658203 1.04297,1.152349 2.45116,1.728515 4.2246,1.728515 1.35157,0 2.51953,-0.349605 3.50391,-1.048828 0.98438,-0.699222 1.5625,-1.591791 1.73438,-2.677734 l -0.30469,0 -0.70313,0 -0.70312,0 -0.30469,0 0,0 z M 185.47234,18 l 2.03907,0 0,-7.816406 c 0,-0.8906297 0.24804,-1.6093725 0.74414,-2.1562502 0.49609,-0.5468778 1.15429,-0.8203126 1.97461,-0.8203126 0.25,0 0.47851,0.011719 0.68554,0.035156 0.20703,0.023438 0.34961,0.050781 0.42774,0.082031 l 0,-2.0039062 C 191.25754,5.304687 191.14031,5.289062 190.99187,5.273437 190.84344,5.2578124 190.67938,5.25 190.49969,5.25 c -0.73438,0 -1.38086,0.1953106 -1.93946,0.5859375 -0.55859,0.3906269 -0.93164,0.9179654 -1.11914,1.5820312 l -0.0469,0 0,-2.0507812 -1.92188,0 0,1.2773437 0,3.1582032 0,3.7617186 0,3.158203 0,1.277344 0,0 z m 7.7861,-9.1054687 c 0,1.6796957 1.09764,2.8046847 3.29297,3.3749997 l 2.21484,0.574219 c 0.71875,0.187501 1.22656,0.412108 1.52344,0.673828 0.29687,0.26172 0.44531,0.615232 0.44531,1.060547 0,0.570315 -0.25195,1.021483 -0.75586,1.353516 -0.50391,0.332032 -1.18554,0.498046 -2.04492,0.498046 -0.85938,0 -1.54297,-0.16992 -2.05078,-0.509765 -0.50782,-0.339846 -0.81641,-0.830075 -0.92578,-1.470703 l -2.05078,0 c 0.10156,1.093755 0.60155,1.978512 1.5,2.654297 0.89844,0.675784 2.02733,1.013671 3.38671,1.013671 1.46095,0 2.6582,-0.343746 3.5918,-1.03125 0.9336,-0.687503 1.40039,-1.570307 1.40039,-2.648437 0,-0.92188 -0.25781,-1.634763 -0.77344,-2.138672 -0.51562,-0.503909 -1.41405,-0.916014 -2.69531,-1.236328 l -1.92187,-0.480469 c -0.72657,-0.179688 -1.26367,-0.416014 -1.61133,-0.7089841 -0.34766,-0.2929702 -0.52149,-0.6542947 -0.52149,-1.0839844 0,-0.5546903 0.23828,-0.9999983 0.71485,-1.3359375 0.47656,-0.3359392 1.10546,-0.5039063 1.88672,-0.5039063 0.77344,0 1.40234,0.1718733 1.88672,0.515625 0.48437,0.3437518 0.75781,0.8124971 0.82031,1.4062501 l 1.95703,0 c -0.0391,-1.0390678 -0.49414,-1.9003873 -1.36524,-2.5839844 -0.87109,-0.6835972 -1.94726,-1.0253907 -3.22851,-1.0253907 -1.3672,0 -2.48828,0.3378873 -3.36328,1.0136719 -0.87501,0.6757847 -1.3125,1.5488228 -1.3125,2.6191407 l 0,0 z" />
      </g>
    </g>
  </g>
</svg>
