<?xml version="1.0" encoding="UTF-8" standalone="no"?>
<svg
   xmlns:dc="http://purl.org/dc/elements/1.1/"
   xmlns:cc="http://creativecommons.org/ns#"
   xmlns:rdf="http://www.w3.org/1999/02/22-rdf-syntax-ns#"
   xmlns:svg="http://www.w3.org/2000/svg"
   xmlns="http://www.w3.org/2000/svg"
   viewBox="0 0 397.5 397.5"
   height="397.5"
   width="397.5"
   xml:space="preserve"
   version="1.1"
   id="svg2"><metadata
     id="metadata8"><rdf:RDF><cc:Work
         rdf:about=""><dc:format>image/svg+xml</dc:format><dc:type
           rdf:resource="http://purl.org/dc/dcmitype/StillImage" /><dc:title></dc:title></cc:Work></rdf:RDF></metadata><defs
     id="defs6" /><g
     transform="matrix(1.25,0,0,-1.25,0,397.5)"
     id="g10"><path
       d="m 283,177 0,35 -25,0 0,-35 -36,0 0,-25 36,0 0,-36 25,0 0,36 35,0 0,25 -35,0 z m -182,2 0,-40 c 0,0 38.804,0.052 54.604,0.052 C 147.048,113.1211 133.744,99 101,99 c -33.1371,0 -59,26.8629 -59,60 0,33.137 25.8629,60 59,60 17.52,0 28.835,-6.158 39.214,-14.741 8.308,8.308 7.614,9.492 28.751,29.453 C 151.022,250.044 127.174,260 101,260 45.2191,260 0,214.781 0,159 0,103.2199 45.2191,58 101,58 c 83.377,0 103.756,72.6 97,121 -19.738,0 -97,0 -97,0"
       style="fill:#ffffff;fill-opacity:1;fill-rule:nonzero;stroke:none"
       id="path14" /></g></svg>