<?xml version="1.0" encoding="UTF-8" standalone="no"?>
<svg
   xmlns:dc="http://purl.org/dc/elements/1.1/"
   xmlns:cc="http://creativecommons.org/ns#"
   xmlns:rdf="http://www.w3.org/1999/02/22-rdf-syntax-ns#"
   xmlns:svg="http://www.w3.org/2000/svg"
   xmlns="http://www.w3.org/2000/svg"
   viewBox="0 0 341.73749 341.7375"
   height="341.73749"
   width="341.73749"
   xml:space="preserve"
   version="1.1"
   id="svg2"><metadata
     id="metadata8"><rdf:RDF><cc:Work
         rdf:about=""><dc:format>image/svg+xml</dc:format><dc:type
           rdf:resource="http://purl.org/dc/dcmitype/StillImage" /><dc:title></dc:title></cc:Work></rdf:RDF></metadata><defs
     id="defs6" /><g
     transform="matrix(1.25,0,0,-1.25,0,341.73749)"
     id="g10"><g
       transform="matrix(0.1,0,0,0.1,-4.8828125e-6,25.605997)"
       id="g12"><path
         id="path14"
         style="fill:#ffffff;fill-opacity:1;fill-rule:nonzero;stroke:none"
         d="m 2733.9,1958.77 c -100.59,-44.61 -208.69,-74.76 -322.15,-88.32 115.81,69.42 204.74,179.34 246.62,310.32 -108.37,-64.28 -228.41,-110.96 -356.17,-136.12 -102.32,109.01 -248.09,177.13 -409.41,177.13 -309.77,0 -560.91,-251.13 -560.91,-560.88 0,-43.96 4.97,-86.77 14.53,-127.82 -466.156,23.39 -879.445,246.69 -1156.09,586.03 -48.281,-82.84 -75.933,-179.18 -75.933,-281.98 0,-194.59 99.019,-366.27 249.519,-466.85 -91.941,2.91 -178.426,28.14 -254.051,70.15 -0.042,-2.34 -0.05,-4.68 -0.05,-7.05 0,-271.76 193.34,-498.458 449.929,-549.982 -47.066,-12.816 -96.621,-19.668 -147.769,-19.668 -36.145,0 -71.281,3.508 -105.527,10.059 71.375,-222.84 278.511,-385 523.953,-389.527 C 638.43,333.832 396.582,244.16 133.801,244.16 88.5273,244.16 43.8789,246.809 0,251.988 248.223,92.8516 543.047,0 859.797,0 1891.48,0 2455.64,854.672 2455.64,1595.86 c 0,24.32 -0.54,48.51 -1.62,72.56 109.58,79.08 204.68,177.87 279.88,290.35" /></g></g></svg>